<?xml version="1.0" standalone="no"?>
<!DOCTYPE svg PUBLIC "-//W3C//DTD SVG 20010904//EN"
 "http://www.w3.org/TR/2001/REC-SVG-20010904/DTD/svg10.dtd">
<svg version="1.0" xmlns="http://www.w3.org/2000/svg"
 width="400.000000pt" height="400.000000pt" viewBox="0 0 400.000000 400.000000"
 preserveAspectRatio="xMidYMid meet">
<metadata>
Created by potrace 1.14, written by Peter Selinger 2001-2017
</metadata>
<g transform="translate(0.000000,400.000000) scale(0.100000,-0.100000)"
fill="#000000" stroke="none">
<path d="M1998 3925 c-2 -3 -76 -7 -164 -10 -87 -3 -175 -7 -194 -9 -19 -3
-62 -7 -95 -11 -89 -8 -136 -14 -173 -19 -84 -13 -110 -17 -132 -21 -13 -3
-42 -7 -65 -11 -22 -3 -60 -10 -85 -16 -25 -5 -58 -12 -75 -15 -104 -16 -259
-64 -338 -104 -42 -22 -144 -88 -202 -132 -57 -42 -191 -182 -236 -247 -48
-68 -96 -160 -104 -198 -2 -12 -6 -25 -8 -30 -3 -4 -8 -23 -11 -42 -3 -19 -8
-46 -11 -60 -30 -136 -59 -323 -70 -455 -3 -33 -8 -71 -10 -85 -24 -127 -24
-775 0 -935 2 -16 7 -57 11 -90 3 -33 8 -69 9 -80 2 -11 6 -42 10 -70 11 -81
15 -106 30 -185 8 -41 17 -88 20 -105 2 -16 7 -39 10 -50 2 -11 9 -39 15 -63
15 -62 90 -206 121 -232 3 -3 10 -12 15 -22 19 -34 141 -155 224 -222 101 -81
305 -182 405 -199 17 -3 53 -10 80 -16 155 -34 409 -76 520 -86 33 -3 70 -8
83 -10 93 -16 531 -23 697 -11 133 10 293 25 325 31 10 2 40 6 67 10 26 4 109
18 183 32 74 13 149 27 165 29 17 3 37 7 45 10 8 3 26 8 40 10 41 7 152 45
190 64 86 43 108 56 155 88 236 163 423 406 439 572 2 21 6 42 9 47 3 4 8 24
11 43 3 19 8 46 11 60 3 14 7 34 9 45 5 24 24 156 30 205 2 19 7 53 10 75 24
170 31 312 31 605 -1 231 -4 323 -19 480 -11 117 -17 167 -21 180 -2 8 -6 33
-9 55 -12 97 -54 318 -73 385 -80 285 -428 595 -758 675 -55 13 -116 27 -135
30 -19 3 -53 10 -75 15 -22 5 -56 11 -75 15 -19 3 -46 7 -60 10 -14 2 -45 7
-70 10 -25 4 -58 8 -75 11 -16 3 -48 7 -70 9 -22 2 -60 7 -85 9 -105 13 -173
17 -308 21 -79 3 -147 7 -151 10 -5 2 -10 2 -13 0z m1222 -2867 c0 -32 -15
-19 -17 15 -2 23 0 28 7 17 5 -8 10 -23 10 -32z"/>
</g>
</svg>
